<?xml version="1.0" standalone="no"?>
<!DOCTYPE svg PUBLIC "-//W3C//DTD SVG 1.1//EN" "http://www.w3.org/Graphics/SVG/1.1/DTD/svg11.dtd" >
<svg>
<metadata>
Created by FontForge 20090914 at Thu Feb 23 16:21:09 2012
 By ffonts
1.0 &#194;&#169;1995 B.O.Nelson&#226;&#128;&#144;Brain Eaters Font Co.
</metadata>
<defs>
<font id="RayGun" horiz-adv-x="485" >
  <font-face 
    font-family="RayGun"
    font-weight="400"
    font-stretch="normal"
    units-per-em="1000"
    panose-1="0 0 4 0 0 0 0 0 0 0"
    ascent="800"
    descent="-200"
    x-height="455"
    cap-height="673"
    bbox="-13 -191 1087 800"
    underline-thickness="20"
    underline-position="-123"
    unicode-range="U+0020-U+2122"
  />
<missing-glyph horiz-adv-x="500" 
d="M63 0v800h375v-800h-375zM125 63h250v675h-250v-675z" />
    <glyph glyph-name=".notdef" horiz-adv-x="500" 
d="M63 0v800h375v-800h-375zM125 63h250v675h-250v-675z" />
    <glyph glyph-name=".null" horiz-adv-x="0" 
 />
    <glyph glyph-name="nonmarkingreturn" horiz-adv-x="334" 
 />
    <glyph glyph-name="space" unicode=" " horiz-adv-x="334" 
 />
    <glyph glyph-name="exclam" unicode="!" horiz-adv-x="293" 
d="M146 203q-31 0 -42 36q-5 15 -8 62l-20 298q0 33 19 55.5t51 22.5q35 0 53 -24.5t17 -60.5v-9l-12 -279q-2 -47 -9 -66q-13 -35 -49 -35zM148 149q32 0 55.5 -23.5t23.5 -55.5q0 -21 -30 -50.5t-51 -29.5t-50.5 28.5t-29.5 49.5q0 34 24 57.5t58 23.5z" />
    <glyph glyph-name="quotedbl" unicode="&#x22;" horiz-adv-x="333" 
d="M11 612q0 26 24 40q20 12 48 12q66 0 66 -49q0 -32 -23 -107q-25 -85 -46 -85q-20 0 -46 84q-23 75 -23 105zM184 612q0 26 26 40q21 12 49 12q63 0 63 -49q0 -32 -23 -107q-25 -85 -46 -85q-23 0 -47 83q-22 73 -22 106z" />
    <glyph glyph-name="numbersign" unicode="#" horiz-adv-x="493" 
d="M369 400h-46l-12 -98h47q4 -17 4 -30q0 -21 -15 -49h-46l-15 -119h-55l15 119h-35l-16 -119q-16 -5 -27 -5q-13 0 -28 5l15 119h-42l11 79h41l12 98h-42q-3 13 -3 27q0 29 14 51h41l14 112h56l-14 -112h35l14 112q13 5 29 5q15 0 27 -5l-15 -112h47zM232 400l-12 -98h36
l12 98h-36z" />
    <glyph glyph-name="dollar" unicode="$" horiz-adv-x="548" 
d="M194 492q0 -39 83 -62q120 -34 154 -56q84 -52 84 -160q0 -166 -180 -204q-7 -102 -64 -102q-58 0 -58 107l-107 18q-73 18 -73 59t65 41q26 0 77 -13t76 -13q53 0 86 29.5t33 80.5q0 41 -86 65q-128 37 -158 54q-85 49 -85 148q0 82 47 127q33 31 122 66q1 42 8 57
q12 24 49 24q31 0 43 -25q7 -15 9 -52q161 -31 161 -92q0 -36 -43 -36q-25 0 -72 18.5t-72 18.5q-52 0 -75.5 -23t-23.5 -75z" />
    <glyph glyph-name="percent" unicode="%" horiz-adv-x="754" 
d="M521 674q18 0 37 -11t19 -28q0 -21 -16 -53l-265 -529q-16 -32 -22 -40q-16 -22 -36 -22q-26 0 -26 30q0 15 18 57l229 534q27 62 62 62zM553 299q63 0 108.5 -44.5t45.5 -107.5t-45 -108t-108 -45t-108 45t-45 108q0 62 45 107t107 45zM199 673q63 0 108 -44.5
t45 -107.5t-44.5 -108t-107.5 -45t-108 44.5t-45 107.5t45 108t107 45zM553 238q-24 0 -44 -34q-17 -30 -17 -56q0 -28 18 -58q20 -34 46 -34q25 0 43 34q16 30 16 57t-17 57q-20 34 -45 34zM200 610q-25 0 -44 -33q-18 -29 -18 -56q0 -28 17 -59q20 -36 45 -36t44 36
q16 31 16 58t-16 56q-19 34 -44 34z" />
    <glyph glyph-name="ampersand" unicode="&#x26;" horiz-adv-x="606" 
d="M415 198q31 121 106 121q32 0 32 -53q0 -52 -47 -159q37 -35 41 -40q23 -27 23 -50l-5 -15q-11 -11 -27 -11q-43 0 -90 50q-68 -57 -163 -57q-103 0 -176 69t-73 171q0 103 82 165q-38 47 -38 106q0 77 66 133q63 54 141 54q54 0 120 -38q74 -43 74 -92q0 -42 -54 -42
q-22 0 -66.5 43.5t-73.5 43.5q-31 0 -51.5 -26.5t-20.5 -57.5q0 -29 9 -48q3 -6 27 -39zM205 293q-48 -47 -48 -91q0 -45 34 -75t80 -30q32 0 83 41z" />
    <glyph glyph-name="quotesingle" unicode="'" horiz-adv-x="181" 
d="M22 612q0 46 71 46q67 0 67 -43q0 -28 -25 -106q-26 -86 -43 -86q-21 0 -47 84q-23 75 -23 105z" />
    <glyph glyph-name="parenleft" unicode="(" horiz-adv-x="446" 
d="M43 343q0 119 61.5 229.5t162.5 173.5q40 25 67 25q28 0 48.5 -21.5t20.5 -49.5t-57 -74q-75 -60 -104 -103q-57 -80 -57 -194q0 -110 43 -198q27 -56 80 -114q43 -48 43 -60q0 -46 -52 -46q-27 0 -64 28q-192 147 -192 404z" />
    <glyph glyph-name="parenright" unicode=")" horiz-adv-x="446" 
d="M403 347q0 119 -61.5 229.5t-162.5 173.5q-40 25 -67 25q-28 0 -48.5 -21.5t-20.5 -49.5t57 -74q75 -60 104 -103q57 -80 57 -194q0 -110 -43 -198q-27 -56 -80 -114q-43 -48 -43 -60q0 -46 52 -46q27 0 64 28q192 147 192 404z" />
    <glyph glyph-name="asterisk" unicode="*" horiz-adv-x="428" 
d="M269 491l32 -43q20 -28 20 -47q0 -34 -28 -34q-29 0 -49 34l-27 58l-32 -57q-24 -35 -50 -35q-30 0 -30 37q0 15 19 47l30 46l-63 10q-38 11 -38 43q0 27 41 27q18 0 44 -8q21 -8 42 -15q0 -8 0 42q0 81 34 81q29 0 35 -48v-70v-5l44.5 17t42.5 9q39 0 39 -30t-41 -44
q-32 -8 -65 -15z" />
    <glyph glyph-name="plus" unicode="+" horiz-adv-x="484" 
d="M272 258v-145q-13 -6 -29 -6t-30 6v145h-123v64h123v146q12 6 27 6q17 0 32 -6v-146h122v-64h-122z" />
    <glyph glyph-name="comma" unicode="," horiz-adv-x="281" 
d="M114 -10q-18 8 -39.5 37t-21.5 47q0 35 26.5 61t61.5 26q31 0 59 -33.5t28 -64.5q0 -187 -134 -187l-6 5q0 12 17 37t17 38q0 9 -8 34z" />
    <glyph glyph-name="hyphen" unicode="-" horiz-adv-x="367" 
d="M148 198q-34 0 -55 16q-25 18 -25 50q0 31 21.5 49t52.5 18h84q31 0 52.5 -18t21.5 -48q0 -31 -21.5 -49t-52.5 -18h-78z" />
    <glyph glyph-name="hyphen" unicode="&#x2010;" horiz-adv-x="367" 
d="M148 198q-34 0 -55 16q-25 18 -25 50q0 31 21.5 49t52.5 18h84q31 0 52.5 -18t21.5 -48q0 -31 -21.5 -49t-52.5 -18h-78z" />
    <glyph glyph-name="period" unicode="." horiz-adv-x="224" 
d="M114 149q32 0 55.5 -23.5t23.5 -55.5q0 -21 -30 -50.5t-51 -29.5t-50.5 28.5t-29.5 49.5q0 34 24 57.5t58 23.5z" />
    <glyph glyph-name="slash" unicode="/" horiz-adv-x="343" 
d="M243 786q26 0 53 -23.5t27 -49.5q0 -40 -89 -364l-110 -393q-18 -67 -66 -67q-17 0 -28 19q-10 16 -10 34q0 7 4 18.5t5 15.5l149 743q13 67 65 67z" />
    <glyph glyph-name="zero" unicode="0" horiz-adv-x="590" 
d="M290 685q140 0 212 -104q63 -90 63 -236t-62 -239q-72 -108 -211 -108t-208 103q-58 87 -58 233t57 239q70 112 207 112zM290 533q-76 0 -117 -63q-34 -54 -34 -134q0 -85 33 -144q40 -72 119 -72q80 0 124 76q36 63 36 149q0 80 -40 131q-43 57 -121 57z" />
    <glyph glyph-name="one" unicode="1" horiz-adv-x="309" 
d="M97 527q-62 0 -62 51q0 35 70 66q60 26 103 26q31 0 49 -27t17 -59l-1 -20l-41 -478q-8 -93 -49 -93q-40 0 -54 34q-9 23 -9 69l-1 389q0 26 -22 42z" />
    <glyph glyph-name="two" unicode="2" horiz-adv-x="538" 
d="M243 133q48 -4 95 -9q74 -8 115 -25q55 -22 55 -61q0 -38 -81 -38h-289q-38 0 -65 16q-32 19 -32 55q0 18 80 93q119 113 148 145q80 87 80 131q0 33 -26 58t-59 25q-45 0 -107 -54.5t-77 -54.5q-51 0 -51 41q0 75 78.5 148.5t153.5 73.5q102 0 166 -51q69 -55 69 -155
q0 -103 -54 -153z" />
    <glyph glyph-name="three" unicode="3" horiz-adv-x="548" 
d="M431 386q91 -59 91 -158q0 -97 -75 -167.5t-172 -70.5q-100 0 -171 56q-78 61 -78 158q0 72 53 72q35 0 54 -44q31 -70 41 -81q36 -44 111 -44q35 0 62.5 25.5t27.5 60.5q0 83 -37 112q-15 12 -69 24q-37 8 -37 39q0 33 26 40q25 3 49 7q27 8 27 46q0 34 -24 57.5
t-58 23.5q-38 0 -71 -38t-60 -38q-51 0 -51 51q0 63 69 113q63 47 129 47q78 0 141 -53q65 -56 65 -133q0 -57 -43 -105z" />
    <glyph glyph-name="four" unicode="4" horiz-adv-x="593" 
d="M354 664h66q45 0 55 -22q3 -9 3 -63v-347h16q73 0 73 -50q0 -45 -89 -45q0 -9 1 -28.5t1 -29.5q0 -82 -57 -82q-30 0 -45 57q-8 41 -17 82l-333 1v123l-2 -3q62 71 165 203zM352 229l-27 287l-200 -281z" />
    <glyph glyph-name="five" unicode="5" horiz-adv-x="532" 
d="M411 667q77 0 77 -42q0 -36 -108 -59q-36 -7 -142 -20l-52 -120q32 3 85 3q111 0 166 -41q64 -47 64 -154q0 -103 -67 -173.5t-169 -70.5q-67 0 -146 48q-88 53 -88 115q0 21 16 36.5t36 15.5q34 0 88 -54.5t104 -54.5q45 0 78 51q28 45 28 93q0 93 -151 93
q-24 0 -63.5 -2.5t-51.5 -2.5q-56 0 -56 83q0 16 32 122l42 133z" />
    <glyph glyph-name="six" unicode="6" horiz-adv-x="536" 
d="M521 234q0 -107 -60 -174q-63 -70 -169 -70q-112 0 -193 92q-77 89 -77 203q0 159 86 271q94 122 248 122q59 0 59 -47q0 -25 -39 -36l-89 -25q-60 -26 -96 -82q-44 -68 -44 -184q0 -54 45 -106q46 -55 99 -55q107 0 107 82q0 37 -36 55q-28 14 -69 14q-11 0 -34 -4.5
t-34 -4.5q-47 0 -47 38q0 39 62 65q50 21 97 21q78 0 131 -49t53 -126z" />
    <glyph glyph-name="seven" unicode="7" horiz-adv-x="471" 
d="M297 529l-201 30q-83 12 -83 60q0 31 18 41q13 7 46 7h290q91 0 91 -75q0 -20 -91 -257l-112 -287q-11 -29 -19 -36q-11 -12 -38 -12q-30 0 -30 37q0 8 17 71z" />
    <glyph glyph-name="eight" unicode="8" horiz-adv-x="484" 
d="M373 383q94 -66 94 -146q0 -104 -61 -174q-64 -73 -166 -73q-99 0 -163 75q-60 71 -60 172q0 73 88 143q-53 72 -53 114q0 80 53.5 131.5t133.5 51.5q81 0 134 -53t53 -133q0 -40 -53 -108zM236 578q-51 0 -51 -83q0 -23 15 -46q17 -26 39 -26q21 0 35 24t14 46
q0 28 -12 53q-15 32 -40 32zM242 356q-40 0 -66 -46q-23 -39 -23 -82q0 -51 17 -85q23 -43 69 -43t70 43q20 35 20 85q0 46 -20 83q-25 45 -67 45z" />
    <glyph glyph-name="nine" unicode="9" horiz-adv-x="536" 
d="M18 428q0 107 61.5 175.5t167.5 68.5q112 0 193 -92q77 -89 77 -203q0 -159 -82 -268q-91 -120 -244 -120q-67 0 -67 42q0 26 39 36q81 21 88 24q60 25 97 83q44 69 44 184q0 54 -45.5 107.5t-98.5 53.5q-107 0 -107 -82q0 -37 36 -55q28 -14 69 -14q12 0 36 4.5t36 4.5
q17 0 30 -10t13 -28q0 -40 -62 -65q-50 -21 -97 -21q-77 0 -130.5 49t-53.5 126z" />
    <glyph glyph-name="colon" unicode=":" horiz-adv-x="280" 
d="M141 386q32 0 55.5 -23.5t23.5 -55.5q0 -21 -30 -50.5t-51 -29.5t-50.5 28.5t-29.5 49.5q0 34 24 57.5t58 23.5zM142 159q32 0 55.5 -23.5t23.5 -55.5q0 -21 -30 -50.5t-51 -29.5t-50.5 28.5t-29.5 49.5q0 34 24 57.5t58 23.5z" />
    <glyph glyph-name="semicolon" unicode=";" horiz-adv-x="281" 
d="M142 379q32 0 55.5 -23.5t23.5 -55.5q0 -21 -30 -50.5t-51 -29.5t-50.5 28.5t-29.5 49.5q0 34 24 57.5t58 23.5zM114 -10q-18 8 -39.5 37t-21.5 47q0 35 26.5 61t61.5 26q31 0 59 -33.5t28 -64.5q0 -187 -134 -187l-6 5q0 12 17 37t17 38q0 9 -8 34z" />
    <glyph glyph-name="less" unicode="&#x3c;" 
d="M384 95q-139 40 -313 143q-8 11 -8 25q0 31 142 101q122 59 181 74q31 -15 29 -45l-1 -10q-128 -88 -234 -120q150 -51 242 -114v-11q1 -14 -11.5 -28t-26.5 -15z" />
    <glyph glyph-name="equal" unicode="=" 
d="M82 272v56h321q4 -12 4 -26q0 -13 -4 -30h-321zM82 179q-4 17 -4 31q0 15 4 25h321v-56h-321z" />
    <glyph glyph-name="greater" unicode="&#x3e;" 
d="M101 95q139 39 313 143q8 11 8 25q0 31 -142 101q-121 59 -181 74q-31 -15 -29 -45l1 -10q129 -88 235 -120q-150 -51 -243 -114v-11q0 -14 12 -28t26 -15z" />
    <glyph glyph-name="question" unicode="?" horiz-adv-x="523" 
d="M283 202q-44 0 -44 22q0 29 38 52q56 35 69 50q37 41 37 114q0 44 -28 79q-30 39 -72 39q-60 0 -102 -36q-20 -18 -52 -68q-24 -37 -41 -37q-44 0 -44 54q0 83 78 146q74 60 159 60q98 0 150 -69q48 -62 48 -163q0 -72 -61 -155q-65 -88 -135 -88zM289 149
q32 0 55.5 -23.5t23.5 -55.5q0 -21 -30 -50.5t-51 -29.5t-50.5 28.5t-29.5 49.5q0 34 24 57.5t58 23.5z" />
    <glyph glyph-name="at" unicode="@" horiz-adv-x="600" 
d="M512 403q0 84 -55.5 135t-140.5 51q-123 0 -178 -68q-50 -61 -50 -187q0 -84 58 -148q60 -67 144 -67q57 0 124 28q81 34 81 83l-10 7l-14 -3q-64 -57 -170 -57q-62 0 -100 35.5t-38 97.5q0 108 24 158q35 72 132 72q82 0 114 -49q25 -39 25 -125q0 -75 -35 -75
q-16 0 -21 9l2 68q1 59 -19 85q-23 31 -81 31q-24 0 -48 -8q-33 -10 -33 -28q0 -22 23 -22q10 0 29 7.5t29 7.5q31 0 30 -49l-88 -16q-48 -14 -48 -64q0 -33 25 -56t57 -23q29 0 57 21q10 -20 31 -20q87 0 118 41q26 35 26 128zM247 310q0 42 56 42q39 0 39 -35
q0 -49 -48 -49q-18 0 -32.5 12t-14.5 30z" />
    <glyph glyph-name="A" unicode="A" horiz-adv-x="628" 
d="M466 144h-305l-43 -86q-33 -58 -64 -58q-36 0 -36 42q0 14 7 32q7 15 13 30l176 509q12 36 30 47q15 9 52 9q9 0 26 1h23q32 0 49 -10q22 -13 34 -50l142 -442l24 -65q16 -46 16 -63q0 -42 -37 -42q-34 0 -66 58zM429 231l-108 254l-128 -254h236z" />
    <glyph glyph-name="B" unicode="B" horiz-adv-x="577" 
d="M178 0q18 0 18 30l1 496h105q87 0 87 -55q0 -49 -45 -67q-10 -4 -81 -15q-44 -7 -44 -31q0 -22 51 -39q81 -28 97 -37q52 -29 52 -79q0 -53 -51 -74l-92 -22q-50 -14 -50 -50q0 -57 71 -57h53q88 0 145 54t57 142q0 103 -88 161q55 46 55 124q0 92 -63 141
q-57 45 -151 45h-279l69 -568q4 -31 27 -63q27 -36 56 -36z" />
    <glyph glyph-name="C" unicode="C" horiz-adv-x="679" 
d="M28 334q0 142 101 242.5t243 100.5q69 0 165 -45q109 -51 109 -108q0 -24 -17.5 -38t-41.5 -14q-20 0 -87 26.5t-129 26.5q-78 0 -131 -56.5t-53 -135.5q0 -77 69.5 -142.5t146.5 -65.5q51 0 115.5 41t81.5 41q51 0 51 -58q0 -61 -112 -114q-96 -45 -166 -45
q-141 0 -243 101.5t-102 242.5z" />
    <glyph glyph-name="D" unicode="D" horiz-adv-x="670" 
d="M30 667h251q153 0 254 -90q105 -94 105 -245q0 -165 -120 -253q-106 -79 -277 -79q-16 0 -16 20q0 37 69 55q98 25 128 46q69 47 69 154t-60 176q-63 73 -169 73h-66l-1 -524q-96 -2 -106 93z" />
    <glyph glyph-name="E" unicode="E" horiz-adv-x="508" 
d="M184 527l-7 -124l123 -6q101 -11 101 -52q0 -47 -96 -61l-131 -8l-10 -136l222 -32q29 -4 58 -24q34 -23 34 -49q0 -35 -56 -35h-302q-61 0 -77 25q-12 18 -12 82v560h399q46 0 46 -41q0 -43 -144 -75z" />
    <glyph glyph-name="F" unicode="F" horiz-adv-x="489" 
d="M189 273q0 1 1 -27.5t1 -54.5q0 -188 -47 -188q-36 0 -50 33q-7 16 -12 63q-38 356 -64 568h29h343q48 0 62 -5q29 -10 29 -49q0 -34 -32 -47q-13 -6 -61 -12l-202 -27v-130l130 -6q104 -12 104 -53q0 -42 -98 -56q-9 -1 -133 -9z" />
    <glyph glyph-name="G" unicode="G" horiz-adv-x="689" 
d="M654 249v-249q0 -13 -9 -15q-28 25 -79 80q-64 -75 -183 -75q-142 0 -244.5 101.5t-102.5 242.5q0 142 101 242.5t244 100.5q70 0 143 -31q92 -39 92 -99q0 -50 -67 -48q-100 42 -171 42q-78 0 -125 -71q-40 -62 -40 -143q0 -85 50 -142t135 -57q129 0 129 110l-146 101
l167 -1q57 0 79 -15q27 -19 27 -74z" />
    <glyph glyph-name="H" unicode="H" horiz-adv-x="652" 
d="M202 409h249l33 180q9 51 10 55q12 30 42 30q68 0 68 -86v-509q0 -79 -60 -79q-39 0 -61 57q-16 41 -24 116l-8 96h-249l-18 -162q-6 -54 -14 -71q-16 -36 -57 -36q-64 0 -64 79v509q0 36 20.5 60.5t56.5 24.5q33 0 55 -116z" />
    <glyph glyph-name="I" unicode="I" horiz-adv-x="293" 
d="M126 0q-56 0 -56 79v509q0 36 21 60.5t56 24.5q37 0 57.5 -26t19.5 -64l-1 -12l-40 -475q-8 -96 -57 -96z" />
    <glyph glyph-name="J" unicode="J" horiz-adv-x="560" 
d="M525 259q0 -115 -68 -192t-182 -77q-100 0 -176 71t-76 171q0 36 20.5 61t55.5 25q48 0 66 -45q14 -42 27 -85q23 -45 81 -45q87 0 104 137q6 127 11 255q11 137 86 137q51 0 51 -84v-329z" />
    <glyph glyph-name="K" unicode="K" horiz-adv-x="567" 
d="M323 356q224 -269 224 -323q0 -42 -44 -42q-32 0 -70 39l-240 246l-7 -193q-2 -43 -7 -59q-11 -33 -43 -33q-37 0 -49 31q-6 13 -9 62l-33 504q0 36 21 60.5t56 24.5q76 0 76 -93q0 -10 -6 -180l207 214q47 48 79 48q39 0 39 -39q0 -22 -94 -143z" />
    <glyph glyph-name="L" unicode="L" horiz-adv-x="502" 
d="M193 140q49 -5 97 -9q75 -9 116 -26q56 -23 56 -64t-59 -41h-274q-89 0 -89 89v499q0 86 54 86q46 0 61 -31q10 -18 13 -71z" />
    <glyph glyph-name="M" unicode="M" horiz-adv-x="819" 
d="M406 318l64 298q6 31 45 40q18 4 67 4q62 0 74 -46l126 -507q13 -53 13 -66q0 -48 -43 -48q-55 0 -84 77l-126 336l-65 -347q-5 -26 -25 -45.5t-45 -19.5q-58 0 -70 65l-65 349l-120 -332q-30 -81 -84 -81q-44 0 -44 49q0 15 13 69l117 496q8 36 37 47q16 6 62 6
q71 0 83 -51z" />
    <glyph glyph-name="N" unicode="N" horiz-adv-x="668" 
d="M463 251l51 320q16 98 78 98q31 0 31 -75v-503q0 -63 -34 -81q-21 -10 -92 -10l-296 418l-44 -320q-7 -49 -18 -69q-18 -33 -59 -33q-35 0 -35 83v505q0 90 49 90q38 0 56.5 -8t39.5 -37z" />
    <glyph glyph-name="O" unicode="O" horiz-adv-x="663" 
d="M640 350q0 -143 -79 -246q-87 -113 -226 -113q-141 0 -229 102q-83 97 -83 240t82 241q88 104 228 104q128 0 219 -101q88 -98 88 -227zM339 500q-78 0 -121 -45t-43 -123q0 -82 42 -151q48 -80 125 -80q76 0 120 82q37 67 37 150q0 74 -43 120.5t-117 46.5z" />
    <glyph glyph-name="P" unicode="P" horiz-adv-x="544" 
d="M264 201q113 0 183 52q79 59 79 168q0 132 -97 195q-82 53 -219 53q-14 0 -85 -2q-52 -1 -86 1l-2 -12l-1 -605q0 -55 34 -55q52 0 64 87l56 438h60q72 0 98 -20q30 -23 30 -93q0 -62 -43 -90q-14 -10 -81 -31q-44 -15 -44 -41q0 -19 17.5 -32t36.5 -13z" />
    <glyph glyph-name="Q" unicode="Q" horiz-adv-x="669" 
d="M656 33q0 -38 -47 -38q-26 0 -90 61q-82 -65 -184 -65q-141 0 -229 102q-83 97 -83 240t82 241q88 104 228 104q128 0 219 -101q88 -98 88 -227q0 -124 -56 -215q72 -58 72 -102zM383 194q0 16 16.5 32t32.5 16q21 0 52 -25q15 31 15 78q0 205 -160 205q-78 0 -121 -45
t-43 -123q0 -94 46 -158q51 -73 141 -73q39 0 62 32q-41 37 -41 61z" />
    <glyph glyph-name="R" unicode="R" horiz-adv-x="539" 
d="M80 -6q-39 0 -39 51l1 622h210q124 0 182 -48q64 -52 64 -173q0 -70 -34 -109q-28 -33 -97 -64q29 -24 80 -114t51 -123q0 -42 -27 -42q-42 0 -78 44q-19 23 -57 92q-33 61 -55 81l-50 32q-35 23 -35 42t45 38q70 29 84 38q46 29 46 73q0 74 -22 99.5t-94 25.5h-55
l-61 -453q-8 -56 -12 -70q-14 -42 -47 -42z" />
    <glyph glyph-name="S" unicode="S" horiz-adv-x="516" 
d="M254 677q50 0 103 -22q65 -28 65 -71q0 -42 -33 -42q-28 0 -49 14l2 -2q-35 21 -53 21q-116 0 -116 -87q0 -40 83 -65q123 -37 156 -57q83 -52 83 -157q0 -101 -72 -162q-68 -57 -171 -57q-71 0 -123 17q-76 26 -76 81q0 51 50 51q27 0 68 -29t70 -29q58 0 82 36
q19 29 19 90q0 49 -83 75q-136 43 -154 53q-83 47 -83 146q0 92 72 147q65 49 160 49z" />
    <glyph glyph-name="T" unicode="T" horiz-adv-x="585" 
d="M369 527l-34 -476q-4 -51 -38 -51q-27 0 -35.5 11t-10.5 39l-35 477q-36 6 -108 28q-84 27 -94 42q0 32 22.5 51t55.5 19h401q33 0 55.5 -19t22.5 -51q-85 -65 -202 -70z" />
    <glyph glyph-name="U" unicode="U" horiz-adv-x="601" 
d="M31 260v328q0 38 8 54q12 24 47 24q40 0 48 -32q3 -32 5 -64l27 -327q4 -49 46 -78q38 -26 89 -26q52 0 84.5 36t32.5 89q0 41 2 136q1 88 1 136q-1 75 -5 136q13 1 36 1q59 0 84 -12q35 -19 35 -73v-324q0 -115 -77 -194.5t-191 -79.5q-113 0 -192.5 78.5t-79.5 191.5z
" />
    <glyph glyph-name="V" unicode="V" horiz-adv-x="658" 
d="M340 234l191 375q18 36 30 49q20 22 50 22q32 0 32 -41q0 -21 -10 -49q-10 -23 -19 -46l-202 -544h-150l-223 543q-24 58 -24 89q0 46 34 46q29 0 50 -24q8 -9 30 -48z" />
    <glyph glyph-name="W" unicode="W" horiz-adv-x="925" 
d="M654 280l140 310q19 41 29 53q20 26 51 26q35 0 35 -44q0 -22 -17 -74l-179 -551h-114l-135 397l-127 -397h-124l-179 548q-19 59 -19 83q0 38 34 38q31 0 51 -25q9 -12 28 -52l146 -312l142 342q13 31 15 34q11 16 32 16q20 0 31 -15q4 -6 15 -33z" />
    <glyph glyph-name="X" unicode="X" horiz-adv-x="571" 
d="M384 342l101 -143q74 -110 74 -142q0 -57 -52 -57q-40 0 -122 98l-97 127l-95 -128q-79 -97 -120 -97q-52 0 -52 60q0 32 73 140l99 142l-93 136q-70 106 -70 133q0 48 55 48q34 0 108 -84l95 -116l102 120q78 86 114 86q46 0 46 -52q0 -33 -70 -136z" />
    <glyph glyph-name="Y" unicode="Y" horiz-adv-x="577" 
d="M291 434l103 130q88 103 127 103q41 0 41 -48q0 -32 -83 -164l-111 -170l-12 -151q-19 -140 -59 -140q-43 0 -66 138l-16 153l-115 167q-85 130 -85 164q0 51 41 51q23 0 43 -16q8 -6 32 -34z" />
    <glyph glyph-name="Z" unicode="Z" horiz-adv-x="590" 
d="M241 140l256 -33q41 -5 52 -10q24 -11 24 -42q0 -55 -81 -55h-475v76l325 451l-226 39q-40 7 -49 11q-25 11 -25 39q0 51 68 51h343q106 0 106 -79q0 -27 -22 -56z" />
    <glyph glyph-name="bracketleft" unicode="[" horiz-adv-x="377" 
d="M185 31q75 -13 85 -16q55 -18 55 -54q0 -32 -29 -52q-25 -18 -59 -18h-78q-54 0 -72 28q-13 21 -15 79q-20 560 -20 684q0 89 89 89h91q34 0 59 -18q29 -19 29 -52q0 -36 -53 -53q-41 -8 -82 -17v-600z" />
    <glyph glyph-name="backslash" unicode="\" horiz-adv-x="343" 
d="M14 714q0 30 19 48t48 18q62 0 79 -74l162 -713q7 -31 7 -54q0 -50 -41 -50q-46 0 -65 67l-116 393q-93 324 -93 365z" />
    <glyph glyph-name="bracketright" unicode="]" horiz-adv-x="377" 
d="M192 31v600q-41 9 -82 17q-53 17 -53 53q0 32 29 52q26 18 59 18h91q89 0 89 -95q0 -136 -7 -339q-7 -170 -13 -339q-2 -57 -16 -78q-18 -29 -71 -29h-78q-34 0 -59 18q-29 19 -29 52q0 36 55 54q8 2 85 16z" />
    <glyph glyph-name="asciicircum" unicode="^" 
d="M328 350l-85 183l-86 -183q-13 -12 -34 -12q-22 0 -41 12q54 147 132 283h58q78 -115 131 -283q-18 -11 -36 -11q-19 0 -39 11z" />
    <glyph glyph-name="underscore" unicode="_" horiz-adv-x="500" 
d="M0 -133v133h500v-133h-500z" />
    <glyph glyph-name="grave" unicode="`" horiz-adv-x="299" 
d="M234 577q0 -51 -54 -51q-34 0 -74.5 42.5t-40.5 76.5q0 24 16.5 38.5t40.5 14.5q30 0 71 -45t41 -76z" />
    <glyph glyph-name="a" unicode="a" horiz-adv-x="478" 
d="M306 34q-56 -43 -113 -43q-67 0 -115.5 46.5t-48.5 113.5q0 101 93 138q60 23 179 22q0 85 -60 85q-21 0 -60 -14t-60 -14q-17 0 -30 12.5t-13 29.5q0 38 65 58q47 15 97 15q121 0 163 -58q34 -47 34 -173v-170q0 -12 6 -34.5t6 -34.5l-4 -13q-9 -10 -32 -10q-44 0 -61 5
q-31 9 -46 39zM301 166q0 39 -14.5 54t-51.5 15q-35 0 -64.5 -24t-29.5 -58q0 -89 82 -89q39 0 60 33q18 27 18 69z" />
    <glyph glyph-name="b" unicode="b" horiz-adv-x="543" 
d="M153 429q69 54 146 54q100 0 164 -72.5t64 -173.5q0 -103 -63 -174q-66 -73 -168 -73q-37 0 -88 36q-16 11 -75 63l-8 -60q-9 -36 -40 -36q-29 0 -37 32q-4 13 -5 55l-10 513q-1 31 17.5 52.5t49.5 21.5q32 0 49 -23t17 -56q0 -5 -13 -159zM249 349q-64 0 -88 -33
q-19 -27 -19 -94q0 -61 38 -83q27 -15 95 -15q47 0 80 33.5t33 80.5q0 57 -42 86q-37 25 -97 25z" />
    <glyph glyph-name="c" unicode="c" horiz-adv-x="489" 
d="M24 238q0 100 72.5 173t172.5 73q49 0 105 -22q70 -28 70 -68q0 -30 -37 -30q-17 0 -48.5 11t-47.5 11q-69 0 -117 -39q-51 -43 -51 -110q0 -66 46 -107.5t113 -41.5q38 0 76.5 22.5t56.5 22.5q31 0 31 -24q0 -45 -77 -84q-67 -35 -117 -35q-102 0 -175 73t-73 175z" />
    <glyph glyph-name="d" unicode="d" horiz-adv-x="509" 
d="M365 429q-69 54 -146 54q-99 0 -154 -78q-50 -69 -50 -171q0 -104 50 -170q56 -74 157 -74q37 0 89 37q17 12 77 64l4 -58q6 -40 29 -40q37 0 48 28q5 14 6 59l10 513q1 31 -17.5 52.5t-49.5 21.5q-32 0 -49 -23t-17 -56q0 -5 13 -159zM269 349q69 0 91 -38
q16 -28 16 -102q0 -85 -133 -85q-47 0 -80 33.5t-33 80.5q0 57 43 86q36 25 96 25z" />
    <glyph glyph-name="e" unicode="e" horiz-adv-x="498" 
d="M161 167q9 -76 140 -76q18 0 53 7.5t53 7.5q52 0 52 -39q0 -42 -88 -64q-61 -16 -122 -16q-95 0 -164 77q-67 74 -67 170q0 99 73.5 171t173.5 72q81 0 150 -55q73 -58 73 -137q0 -68 -74 -79zM369 307q-8 23 -41 44t-59 21q-107 0 -115 -125z" />
    <glyph glyph-name="f" unicode="f" horiz-adv-x="348" 
d="M226 549q-21 -24 -21 -51q0 -7 1.5 -21t1.5 -21h24q81 1 81 -51q0 -37 -38 -47q-18 -6 -67 -5l-27 -268q-5 -46 -11 -61q-13 -29 -49 -29q-49 0 -49 222q0 35 1.5 82.5t1.5 53.5q-74 4 -74 55q0 45 81 45v53q0 161 136 161q128 0 128 -36q0 -29 -39 -117q-25 25 -29 27
q-13 9 -38 8h-14z" />
    <glyph glyph-name="g" unicode="g" horiz-adv-x="518" 
d="M249 -88q-26 0 -71.5 17t-69.5 17q-41 0 -41 -43q0 -54 74 -78q50 -16 122 -16q121 0 176 66q50 60 53 185l10 388q-22 30 -54 30q-24 0 -47 -12q-26 -13 -35 -33q-69 54 -146 54q-99 0 -154 -72q-50 -65 -50 -167q0 -103 51 -162q55 -62 156 -62q70 0 164 81l1 -32
q4 -161 -139 -161zM270 363q64 0 88 -32q19 -27 19 -93q0 -100 -133 -100q-47 0 -80 33.5t-33 80.5q0 57 43 86q36 25 96 25z" />
    <glyph glyph-name="h" unicode="h" horiz-adv-x="466" 
d="M162 443q24 15 48 28.5t54 13.5q77 0 131 -42q57 -46 57 -122q0 -101 -12 -187q-20 -142 -66 -142q-42 0 -42 130q0 23 1.5 56.5t1.5 37.5q0 153 -86 153q-60 0 -84 -32q-10 -13 -15 -104q-7 -113 -14 -154q-15 -79 -49 -79q-30 0 -40 20q-7 14 -7 47v601q33 -2 136 0
q-5 -75 -14 -225z" />
    <glyph glyph-name="i" unicode="i" horiz-adv-x="218" 
d="M142 480q41 1 41 -25q0 -72 -15 -184q-22 -166 -24 -184q-5 -54 -7 -59q-9 -35 -38 -35q-26 0 -34 31q-3 10 -4 52q-4 135 -18 404h99zM111 668q32 0 55.5 -23.5t23.5 -55.5q0 -21 -30 -50.5t-51 -29.5t-50.5 28.5t-29.5 49.5q0 34 24 57.5t58 23.5z" />
    <glyph glyph-name="j" unicode="j" horiz-adv-x="233" 
d="M128 668q30 0 55 -20t25 -49q0 -25 -28 -57.5t-53 -32.5q-19 0 -49.5 29.5t-30.5 48.5q0 34 23.5 57.5t57.5 23.5zM51 -144q-13 0 -25.5 10t-16.5 23q4 20 33 68q24 38 24 95q0 165 -19 428h109q41 0 41 -25q0 -49 -23 -245q-23 -202 -35 -241q-8 -28 -35 -67
q-31 -46 -53 -46z" />
    <glyph glyph-name="k" unicode="k" horiz-adv-x="478" 
d="M158 327l130 83q100 63 125 63q35 0 35 -42q0 -54 -168 -175q164 -186 164 -219q0 -45 -54 -45q-30 0 -123 100l-109 123l-8 -129q-14 -88 -66 -88q-45 0 -45 57l2 612h106q29 0 29 -18q0 -63 -7 -161q-10 -139 -11 -161z" />
    <glyph glyph-name="l" unicode="l" horiz-adv-x="229" 
d="M109 -7q-35 0 -38 79l-10 297q-6 172 -16 297h99q41 1 41 -25q0 -11 -3 -31t-3 -29l-24 -503q-2 -42 -6 -55q-10 -30 -40 -30z" />
    <glyph glyph-name="m" unicode="m" horiz-adv-x="751" 
d="M380 429q63 54 139 54q81 0 143 -55q66 -57 66 -136q0 -96 -11 -172q-19 -129 -65 -129q-38 0 -41 94q-6 166 -7 173q-16 94 -84 94q-60 0 -72 -91l-10 -170q-10 -91 -66 -91q-27 0 -37 38q-6 26 -6 89v36q0 90 -13 130q-20 61 -76 61q-63 0 -81 -94l-18 -174
q-13 -94 -66 -94q-28 0 -38 26q-5 14 -5 49v445h83q12 0 20.5 -24t14.5 -24l34 13.5t54 13.5q63 0 142 -62z" />
    <glyph glyph-name="n" unicode="n" horiz-adv-x="471" 
d="M35 67q0 -72 43 -72q44 0 54 96q17 176 18 179q23 96 100 96q83 0 83 -172q0 -21 -1 -53t-1 -41q0 -100 34 -100q36 0 49 27q8 16 12 58q19 217 19 241q0 71 -65 116q-58 41 -132 41q-23 0 -55.5 -11t-38.5 -11l-13 1l-20 29h-86v-424z" />
    <glyph glyph-name="o" unicode="o" horiz-adv-x="496" 
d="M250 487q102 0 166 -75q61 -72 61 -175q0 -101 -64 -172t-164 -71t-164 70t-64 170q0 106 61 177q64 76 168 76zM250 354q-48 0 -72 -37q-21 -31 -21 -81q0 -160 92 -160q59 0 79 49q13 31 13 100q0 129 -91 129z" />
    <glyph glyph-name="p" unicode="p" horiz-adv-x="539" 
d="M146 94q69 -54 146 -54q100 0 165 74q63 71 63 172q0 103 -63 174q-66 73 -168 73q-63 0 -135 -62q-19 59 -64 59q-41 0 -55 -25q-9 -17 -9 -62v-536q0 -75 38 -75q60 0 67 84zM242 174q-68 0 -91 38q-16 28 -16 102q0 53 30 71q23 14 79 14q60 0 96 -26q41 -30 41 -88
q0 -57 -42 -86q-37 -25 -97 -25z" />
    <glyph glyph-name="q" unicode="q" horiz-adv-x="539" 
d="M371 85q-57 -45 -124 -45q-100 0 -165 74q-63 71 -63 172q0 103 64.5 175t166.5 72q57 0 141 -73q10 34 18 45q14 18 44 18q61 0 61 -59q0 -111 -13 -280l-21 -280q-3 -42 -8 -57q-11 -31 -43 -31q-60 0 -60 189q0 21 1 48q0 16 1 32zM297 174q68 0 91 38q16 28 16 102
q0 53 -30 71q-23 14 -79 14q-60 0 -96 -26q-41 -30 -41 -88q0 -57 43 -86q36 -25 96 -25z" />
    <glyph glyph-name="r" unicode="r" horiz-adv-x="362" 
d="M155 448q40 35 113 35q34 0 60 -24t26 -58q0 -42 -49 -42q-19 0 -52 15.5t-51 15.5q-43 0 -55 -101l-16 -188q-15 -101 -66 -101q-37 0 -37 67v363q0 51 44 51q66 0 83 -33z" />
    <glyph glyph-name="s" unicode="s" horiz-adv-x="432" 
d="M220 484q50 0 98 -21q61 -25 61 -68q0 -34 -35 -34q-26 0 -64.5 27.5t-61.5 27.5q-21 0 -40 -13q-22 -14 -22 -34q0 -24 66 -46q94 -30 124 -50q67 -43 67 -117q0 -77 -59 -123q-54 -43 -133 -43q-61 0 -125 29q-77 36 -77 89q0 33 34 33t79.5 -37t80.5 -37q30 0 55 18
q29 19 29 47q0 38 -66 57q-106 31 -121 39q-65 35 -65 112q0 68 55 108q49 36 120 36z" />
    <glyph glyph-name="t" unicode="t" horiz-adv-x="322" 
d="M86 444v189h97q37 0 37 -36v-16q-1 -11 -1 -16v-124l30 1q62 1 62 -44q0 -33 -33 -42q-13 -3 -59 -3l-12 -235q-12 -125 -55 -125q-39 0 -55 162q-5 99 -11 198q-35 0 -51 6q-24 11 -24 41t25 40q14 5 50 4z" />
    <glyph glyph-name="u" unicode="u" horiz-adv-x="478" 
d="M223 105q112 0 112 129v246h74q29 0 40 -7q13 -10 13 -38q0 -21 1.5 -63t1.5 -63q0 -319 -220 -319q-98 0 -159 70q-57 66 -57 166v180q0 68 38 68q43 0 51 -96q8 -89 15 -178q20 -95 90 -95z" />
    <glyph glyph-name="v" unicode="v" horiz-adv-x="481" 
d="M240 170l130 226q18 31 27 40q17 19 42 19q35 0 35 -29q0 -27 -81 -211q-79 -180 -104 -215h-94q-39 72 -106 212q-82 172 -82 202q0 40 42 40q36 0 110 -130z" />
    <glyph glyph-name="w" unicode="w" horiz-adv-x="718" 
d="M358 244q-31 -82 -97 -244h-93q-152 405 -152 423q0 40 41 40q38 0 68 -60l91 -181l57 122q48 89 90 89t65 -50l73 -161l89 178q18 36 25 44q17 20 45 20q43 0 43 -42q0 -37 -154 -422h-95q-22 47 -50 121z" />
    <glyph glyph-name="x" unicode="x" horiz-adv-x="480" 
d="M241 339l84 71q65 53 85 53q50 0 50 -52q0 -25 -55 -85l-76 -79l83 -93q61 -72 61 -95q0 -26 -15 -42.5t-40 -16.5q-26 0 -92 61l-85 85l-90 -85q-70 -61 -94 -61q-21 0 -35.5 15.5t-14.5 36.5q0 35 58 103l87 92l-72 81q-47 57 -47 89q0 47 53 47q20 0 78 -53z" />
    <glyph glyph-name="y" unicode="y" horiz-adv-x="504" 
d="M256 216l124 209l24 42q13 15 48 15q24 0 33 -10t9 -35q0 -22 -199 -437q-79 -164 -167 -164q-42 0 -77 22q-41 25 -41 65q0 41 40 41q15 0 44 -10t45 -10q15 0 32 59l19 75l-97 185q-72 143 -72 176q0 50 45 50q39 0 69 -54z" />
    <glyph glyph-name="z" unicode="z" horiz-adv-x="438" 
d="M209 122q65 -5 123 -20q92 -23 92 -56q0 -28 -16 -38q-12 -8 -40 -8h-354q1 64 0 77l202 274l-110 22q-82 22 -82 54q0 22 26 35q21 12 45 12q27 0 157 -1q96 -1 157 0v-70z" />
    <glyph glyph-name="braceleft" unicode="{" horiz-adv-x="268" 
d="M67 275q49 18 49 101q0 18 -2.5 54.5t-2.5 54.5q0 106 90 106v-8h-2q-43 1 -43 -90q0 -20 2.5 -52.5t2.5 -38.5q0 -106 -54 -127q54 -20 54 -128q0 -20 -2 -53.5t-2 -44.5q0 -81 45 -80v-8q-91 0 -91 104q0 18 3 54.5t3 54.5q0 82 -50 101z" />
    <glyph glyph-name="bar" unicode="|" 
d="M226 110v511h33v-511h-33z" />
    <glyph glyph-name="braceright" unicode="}" horiz-adv-x="265" 
d="M200 275q-50 -19 -50 -100q0 -18 2.5 -54.5t2.5 -54.5q0 -104 -90 -105v8h5q41 0 41 87q0 22 -2.5 56.5t-2.5 41.5q0 100 54 121q-55 20 -55 133q0 20 2 54.5t2 44.5q0 81 -44 75v9q90 0 90 -105q0 -18 -2.5 -55t-2.5 -55q0 -83 50 -101z" />
    <glyph glyph-name="asciitilde" unicode="~" 
d="M112 203l-21 28q21 39 33 53q23 28 52 28q24 0 70 -24.5t65 -24.5q34 0 62 60l21 -27q-36 -77 -83 -77q-22 0 -69 24.5t-65 24.5q-22 0 -40 -23q-5 -7 -25 -42z" />
    <glyph glyph-name="cent" unicode="&#xa2;" horiz-adv-x="490" 
d="M333 599q42 -11 79 -35q48 -31 48 -65q0 -39 -42 -39q-35 0 -79.5 26.5t-72.5 26.5q-53 0 -83 -52q-24 -43 -24 -99q0 -61 32 -100q35 -42 95 -42q25 0 63 21.5t63 21.5q55 0 55 -29q0 -39 -49 -73q-39 -26 -85 -37q0 -106 -57 -106q-43 0 -60 36q-8 16 -17 73
q-80 30 -127 90q-48 64 -48 147q0 81 48.5 146.5t126.5 88.5q1 107 67 107q43 0 58 -35q10 -23 9 -72z" />
    <glyph glyph-name="sterling" unicode="&#xa3;" horiz-adv-x="588" 
d="M234 140l260 -35q25 -3 46 -18q25 -17 25 -41q0 -46 -67 -46h-333q-36 0 -60 19q-27 21 -27 55q0 33 20 88q22 60 25 88q-100 0 -99 70q31 21 80 21q-8 36 -8 111q0 92 67 158.5t160 66.5t149.5 -57.5t56.5 -151.5q0 -32 -9 -45q-11 -18 -42 -18q-35 0 -50 44
q-25 75 -28 80q-27 43 -92 43q-30 0 -52 -22.5t-22 -51.5q0 -55 26 -157q78 0 109 -22l-1 1q0 -70 -97 -70q0 -62 -37 -110z" />
    <glyph glyph-name="bullet" unicode="&#x2022;" horiz-adv-x="453" 
d="M227 160q-47 0 -110.5 63t-63.5 110q0 71 51.5 122.5t122.5 51.5t122 -51.5t51 -122.5q0 -46 -63.5 -109.5t-109.5 -63.5z" />
    <glyph glyph-name="paragraph" unicode="&#xb6;" horiz-adv-x="502" 
d="M356 42q66 -4 66 -23q0 -17 -87 -17q-85 0 -173 4l-9 15q0 14 28 18q35 5 37.5 6.5t6.5 280.5q-67 0 -107 35q-43 36 -43 102q0 61 32 99.5t92 38.5l141 1q87 0 87 -24q0 -17 -36 -20q-24 0 -48 -1h-9v-30q-1 -99 7 -243q7 -121 15 -242zM235 559q-59 -9 -72 -21
q-15 -15 -15 -73q0 -56 13 -74q15 -22 69 -25zM279 41h11l21 516l-51 2z" />
    <glyph glyph-name="registered" unicode="&#xae;" horiz-adv-x="542" 
d="M193 108q-19 0 -19 26v311h105q131 0 131 -110q0 -61 -73 -87q14 -12 38.5 -55.5t24.5 -59.5q0 -21 -13 -21q-26 0 -51 39q-32 53 -41 60q-13 9 -25 19q-16 13 -17 23l7 17q48 8 52 9q24 11 24 44q0 35 -7 48q-10 20 -42 20h-34l-34 -232l-4 -32q-5 -19 -22 -19zM518 294
q0 -115 -64 -198q-69 -90 -180 -90q-113 0 -183 82q-67 77 -67 192t66 193q70 83 182 83q103 0 174.5 -79.5t71.5 -182.5zM277 494q-82 0 -141.5 -66t-59.5 -149q0 -81 60 -151q63 -74 143 -74q92 0 146 69q50 63 50 157q0 78 -59 145q-62 69 -139 69z" />
    <glyph glyph-name="copyright" unicode="&#xa9;" horiz-adv-x="530" 
d="M107 277q0 70 51 121t121 51q35 0 82 -22q55 -26 55 -56q0 -29 -40 -29q-7 0 -34 20.5t-63 20.5q-39 0 -68 -33.5t-29 -72.5q0 -41 33.5 -78t73.5 -37q28 0 57 26t44 26q28 0 28 -31q0 -30 -56 -56q-48 -22 -82 -22q-71 0 -122 51t-51 121zM512 294q0 -115 -64 -198
q-69 -90 -180 -90q-113 0 -183 82q-67 77 -67 192t66 193q70 83 182 83q103 0 174.5 -79.5t71.5 -182.5zM271 494q-82 0 -141.5 -66t-59.5 -149q0 -81 60 -151q63 -74 143 -74q92 0 146 69q50 63 50 157q0 78 -59 145q-62 69 -139 69z" />
    <glyph glyph-name="trademark" unicode="&#x2122;" horiz-adv-x="653" 
d="M191 462l-15 -238q-1 -25 -19 -25q-20 0 -23 25l-20 238q-18 3 -54 14q-41 13 -47 21q0 35 39 35h201q39 0 39 -35q-43 -32 -101 -35zM445 362l32 149q5 21 55 21q31 0 38 -22q70 -236 70 -289q0 -22 -22 -22q-28 0 -42 39l-63 168l-33 -174q-6 -32 -35 -32q-28 0 -35 32
l-32 175l-36 -114q-34 -93 -66 -93q-22 0 -22 25q0 47 65 282q5 18 19 23q8 3 30 3q36 0 42 -25z" />
    <glyph glyph-name="acute" unicode="&#xb4;" horiz-adv-x="299" 
d="M123 526q-27 0 -35 3q-17 6 -21 27q-1 9 -1 27q0 28 40.5 70t68.5 42q50 0 56 -26q2 -11 2 -32q0 -28 -41 -69.5t-69 -41.5z" />
    <glyph glyph-name="florin" unicode="&#x192;" horiz-adv-x="498" 
d="M322 358l-49 -277q-21 -121 -56 -161q-45 -53 -158 -53q-37 0 -52 10q-20 13 -20 49q0 45 79 45q9 0 25.5 -6.5t25.5 -6.5q42 0 52 67q3 48 5 97l13 236q-87 2 -87 68q0 33 36 39q30 3 60 5q9 124 36 184q43 96 143 96q46 0 86 -20q50 -25 50 -66q0 -51 -75 -51
q-12 0 -31.5 7.5t-24.5 7.5q-9 0 -20 -57l-18 -96q47 0 66 -7q33 -12 33 -50q0 -60 -119 -60z" />
    <glyph glyph-name="nonbreakingspace" unicode="&#xa0;" horiz-adv-x="360" 
 />
    <glyph glyph-name="endash" unicode="&#x2013;" horiz-adv-x="564" 
d="M423 331q33 0 61 -16q33 -20 33 -50q0 -31 -33 -50q-28 -17 -61 -17h-276q-36 0 -65 15q-35 19 -35 51q0 31 33 50q28 17 61 17h282z" />
    <glyph glyph-name="emdash" unicode="&#x2014;" horiz-adv-x="1133" 
d="M993 331q32 0 60 -16q34 -20 34 -50q0 -31 -33 -50q-29 -17 -61 -17h-846q-36 0 -65 15q-35 19 -35 51q0 31 32 50q29 17 62 17h852z" />
    <glyph glyph-name="quotedblleft" unicode="&#x201c;" horiz-adv-x="474" 
d="M359 598q55 -27 55 -75q0 -32 -23.5 -55.5t-55.5 -23.5q-31 0 -54.5 23t-23.5 54t26 97q29 73 53 73q14 0 26 -15.5t12 -29.5q0 -11 -15 -48zM163 598q30 -19 39 -29q15 -18 15 -46q0 -32 -23.5 -55.5t-55.5 -23.5q-31 0 -54.5 23t-23.5 54q0 30 26 97q30 73 53 73
q14 0 26 -15.5t12 -29.5q0 -7 -14 -48z" />
    <glyph glyph-name="quotedblright" unicode="&#x201d;" horiz-adv-x="474" 
d="M114 526q-30 19 -39 29q-15 18 -15 46q0 32 23.5 55.5t55.5 23.5q31 0 54.5 -23t23.5 -54q0 -30 -27 -96q-29 -74 -52 -74q-14 0 -26 15.5t-12 29.5q0 4 14 48zM311 526q-31 20 -39 29q-15 17 -15 46q0 32 23 55.5t55 23.5q31 0 55 -23t24 -54t-27 -97q-29 -73 -53 -73
q-14 0 -25.5 15.5t-11.5 29.5q0 13 14 48z" />
    <glyph glyph-name="quoteleft" unicode="&#x2018;" horiz-adv-x="277" 
d="M163 598q30 -19 39 -29q15 -18 15 -46q0 -32 -23.5 -55.5t-55.5 -23.5q-31 0 -54.5 23t-23.5 54q0 30 26 97q30 73 53 73q14 0 26 -15.5t12 -29.5q0 -7 -14 -48z" />
    <glyph glyph-name="quoteright" unicode="&#x2019;" horiz-adv-x="277" 
d="M114 526q-30 19 -39 29q-15 18 -15 46q0 32 23.5 55.5t55.5 23.5q31 0 54.5 -23t23.5 -54q0 -30 -27 -96q-29 -74 -52 -74q-14 0 -26 15.5t-12 29.5q0 4 14 48z" />
    <glyph glyph-name="fraction" unicode="&#x2044;" horiz-adv-x="348" 
d="M317 674q39 0 39 -37q0 -19 -16 -53l-247 -531q-29 -62 -59 -62q-16 0 -29 11t-13 27q0 18 19 57l244 526q28 62 62 62z" />
  </font>
</defs>
</svg>
